<?xml version="1.0" encoding="UTF-8" standalone="no"?>
<!-- Created with Inkscape (http://www.inkscape.org/) -->

<svg
   xmlns:dc="http://purl.org/dc/elements/1.1/"
   xmlns:cc="http://creativecommons.org/ns#"
   xmlns:rdf="http://www.w3.org/1999/02/22-rdf-syntax-ns#"
   xmlns:svg="http://www.w3.org/2000/svg"
   xmlns="http://www.w3.org/2000/svg"
   xmlns:sodipodi="http://sodipodi.sourceforge.net/DTD/sodipodi-0.dtd"
   xmlns:inkscape="http://www.inkscape.org/namespaces/inkscape"
   width="210mm"
   height="297mm"
   viewBox="0 0 744.09448819 1052.3622047"
   id="svg8694"
   version="1.1"
   inkscape:version="0.91 r13725"
   sodipodi:docname="sixteen_no_txt.svg">
  <defs
     id="defs8696" />
  <sodipodi:namedview
     id="base"
     pagecolor="#ffffff"
     bordercolor="#666666"
     borderopacity="1.0"
     inkscape:pageopacity="0.0"
     inkscape:pageshadow="2"
     inkscape:zoom="0.7"
     inkscape:cx="150.71429"
     inkscape:cy="1074.3559"
     inkscape:document-units="px"
     inkscape:current-layer="layer1"
     showgrid="false"
     inkscape:window-width="1366"
     inkscape:window-height="720"
     inkscape:window-x="0"
     inkscape:window-y="21"
     inkscape:window-maximized="0" />
  <metadata
     id="metadata8699">
    <rdf:RDF>
      <cc:Work
         rdf:about="">
        <dc:format>image/svg+xml</dc:format>
        <dc:type
           rdf:resource="http://purl.org/dc/dcmitype/StillImage" />
        <dc:title></dc:title>
      </cc:Work>
    </rdf:RDF>
  </metadata>
  <g
     inkscape:label="Layer 1"
     inkscape:groupmode="layer"
     id="layer1">
    <g
       transform="matrix(16,0,0,16,2,2)"
       id="segs"
       style="fill-rule:evenodd;stroke:#ffffff;stroke-width:0.25;stroke-linecap:butt;stroke-linejoin:miter;stroke-opacity:1">
      <polygon
         style="fill:#dddddd"
         id="a1"
         points="4,0 5,1 4,2 2,2 1,1 2,0 " />
      <polygon
         style="fill:#dddddd"
         id="a2"
         points="8,0 9,1 8,2 6,2 5,1 6,0 " />
      <polygon
         style="fill:#dddddd"
         id="b"
         points="10,8 9,9 8,8 8,2 9,1 10,2 " />
      <polygon
         style="fill:#dddddd"
         id="c"
         points="10,16 9,17 8,16 8,10 9,9 10,10 " />
      <polygon
         style="fill:#dddddd"
         id="d1"
         points="6,18 5,17 6,16 8,16 9,17 8,18 " />
      <polygon
         style="fill:#dddddd"
         id="d2"
         points="2,18 1,17 2,16 4,16 5,17 4,18 " />
      <polygon
         style="fill:#dddddd"
         id="e"
         points="0,10 1,9 2,10 2,16 1,17 0,16 " />
      <polygon
         style="fill:#dddddd"
         id="f"
         points="0,2 1,1 2,2 2,8 1,9 0,8 " />
      <polygon
         style="fill:#dddddd"
         id="g1"
         points="4,8 5,9 4,10 2,10 1,9 2,8 " />
      <polygon
         style="fill:#dddddd"
         id="g2"
         points="8,8 9,9 8,10 6,10 5,9 6,8 " />
      <polygon
         style="fill:#dddddd"
         id="h"
         points="6,8 5,9 4,8 4,2 5,1 6,2 " />
      <polygon
         style="fill:#dddddd"
         id="i"
         points="6,16 5,17 4,16 4,10 5,9 6,10 " />
      <polygon
         style="fill:#dddddd"
         id="j"
         points="4,7 4,8 3,8 2,3 2,2 3,2 " />
      <polygon
         style="fill:#dddddd"
         id="k"
         points="7,8 6,8 6,7 7,2 8,2 8,3 " />
      <polygon
         style="fill:#dddddd"
         id="m"
         points="8,15 8,16 7,16 6,11 6,10 7,10 " />
      <polygon
         style="fill:#dddddd"
         id="l"
         points="3,16 2,16 2,15 3,10 4,10 4,11 " />
    </g>
    <g
       transform="matrix(16,0,0,16,22.857143,8.3622069)"
       style="font-weight:bold;font-size:2px;font-family:sans-serif;text-anchor:middle;fill-rule:evenodd;stroke:none"
       id="g8612">
      <text
         x="3"
         y="1.6"
         id="text8614" />
      <text
         x="7"
         y="1.6"
         id="text8616" />
      <text
         x="9"
         y="5.5999999"
         id="text8618" />
      <text
         x="9"
         y="13.6"
         id="text8620" />
      <text
         x="3"
         y="17.700001"
         id="text8622" />
      <text
         x="7"
         y="17.700001"
         id="text8624" />
      <text
         x="1"
         y="13.6"
         id="text8626" />
      <text
         x="1"
         y="5.5999999"
         id="text8628" />
      <text
         x="3"
         y="9.3999996"
         id="text8630" />
      <text
         x="7"
         y="9.3999996"
         id="text8632" />
      <text
         x="5"
         y="5.5999999"
         id="text8634" />
      <text
         x="5"
         y="13.6"
         id="text8636" />
      <text
         x="3"
         y="5.5999999"
         id="text8638" />
      <text
         x="7"
         y="5.5999999"
         id="text8640" />
      <text
         x="3"
         y="13.6"
         id="text8642" />
      <text
         x="7"
         y="13.6"
         id="text8644" />
    </g>
    <flowRoot
       xml:space="preserve"
       id="flowRoot8774"
       style="fill:black;stroke:none;stroke-opacity:1;stroke-width:1px;stroke-linejoin:miter;stroke-linecap:butt;fill-opacity:1;font-family:sans-serif;font-style:normal;font-weight:normal;font-size:40px;line-height:125%;letter-spacing:0px;word-spacing:0px"><flowRegion
         id="flowRegion8776"><rect
           id="rect8778"
           width="410"
           height="484.28571"
           x="-81.428574"
           y="-97.637794" /></flowRegion><flowPara
         id="flowPara8780"></flowPara></flowRoot>  </g>
</svg>
